<?xml version="1.0" standalone="no"?>
<!DOCTYPE svg PUBLIC "-//W3C//DTD SVG 20010904//EN"
 "http://www.w3.org/TR/2001/REC-SVG-20010904/DTD/svg10.dtd">
<svg version="1.0" xmlns="http://www.w3.org/2000/svg"
 width="1081.000000pt" height="1081.000000pt" viewBox="0 0 1081.000000 1081.000000"
 preserveAspectRatio="xMidYMid meet">
<metadata>
Created by potrace 1.11, written by Peter Selinger 2001-2013
</metadata>
<g transform="translate(0.000000,1081.000000) scale(0.100000,-0.100000)"
fill="#000000" stroke="none">
<path d="M574 10409 c-69 -14 -118 -57 -145 -125 -8 -20 -11 -198 -11 -594 -1
-554 0 -567 20 -607 46 -90 143 -132 233 -101 48 16 86 46 112 88 22 35 22 39
25 493 l3 457 430 0 c287 0 445 4 475 11 79 20 144 105 144 188 0 44 -29 110
-61 141 -57 54 -50 54 -645 54 -304 1 -565 -1 -580 -5z"/>
<path d="M9098 10409 c-111 -30 -171 -131 -143 -243 19 -73 78 -125 163 -141
9 -2 211 -4 448 -4 l431 -1 0 -447 c1 -277 5 -458 11 -474 14 -35 59 -87 91
-103 99 -51 214 -14 267 84 18 33 19 68 22 593 2 378 -1 570 -8 598 -14 51
-71 114 -118 130 -28 10 -174 13 -589 14 -304 0 -563 -3 -575 -6z"/>
<path d="M1480 9177 l0 -173 81 -2 c90 -3 133 -19 145 -54 4 -13 8 -557 8
-1210 1 -652 3 -1188 6 -1190 26 -22 201 -89 266 -103 10 -2 53 -11 94 -20
242 -54 468 -67 639 -39 260 44 431 142 565 323 82 112 158 300 181 451 4 25
9 54 11 65 18 92 26 440 11 540 -4 28 -9 68 -13 90 -9 64 -62 213 -102 289
-34 66 -126 186 -162 212 -8 7 -26 22 -40 34 -65 57 -221 128 -320 146 -56 10
-269 12 -325 3 -107 -18 -216 -64 -288 -121 -21 -16 -41 -27 -45 -24 -3 4 -6
219 -6 479 l-1 472 -352 2 -353 3 0 -173z"/>
<path d="M4605 8533 c-259 -44 -446 -164 -593 -380 -42 -62 -135 -233 -126
-233 2 0 -3 -17 -11 -37 -22 -57 -53 -181 -60 -243 -4 -30 -9 -64 -11 -75 -7
-33 -6 -244 1 -320 8 -89 41 -244 67 -312 10 -29 19 -54 18 -55 -4 -6 58 -117
97 -173 124 -181 303 -281 578 -324 173 -27 478 3 600 59 11 5 45 19 75 32 69
29 168 83 199 109 23 19 23 21 8 57 -30 73 -126 275 -135 284 -6 6 -27 -3 -53
-20 -81 -55 -204 -110 -281 -126 -13 -3 -36 -8 -53 -11 -40 -9 -179 -9 -236
-2 -161 22 -290 127 -346 281 -20 56 -42 172 -34 184 3 5 67 12 141 15 74 3
144 8 155 10 11 3 40 8 65 11 86 12 207 40 285 68 85 29 189 82 246 124 110
80 208 230 240 364 12 50 16 244 6 280 -2 8 -7 32 -12 53 -4 20 -11 40 -16 43
-5 3 -9 12 -9 21 0 27 -81 137 -132 180 -43 36 -188 121 -195 115 -2 -1 -4 -2
-5 -1 -2 0 -10 2 -18 4 -8 2 -26 7 -40 10 -114 28 -281 31 -415 8z"/>
<path d="M6570 8534 c-111 -19 -113 -19 -130 -26 -8 -4 -40 -15 -71 -26 -230
-83 -433 -308 -537 -594 -26 -72 -38 -120 -57 -216 -24 -129 -24 -395 0 -537
44 -254 155 -462 315 -587 227 -179 665 -230 1000 -118 88 30 258 113 298 147
l33 28 -65 138 c-36 76 -66 141 -66 145 0 5 -6 16 -13 26 -11 16 -19 13 -97
-33 -197 -117 -376 -149 -594 -106 -15 3 -54 19 -85 34 -132 67 -212 199 -235
387 l-5 41 82 2 c125 2 237 15 412 47 106 20 296 97 382 155 124 83 225 234
258 384 26 116 17 276 -20 370 -36 91 -72 143 -137 198 -127 107 -274 154
-487 155 -53 0 -134 -6 -181 -14z"/>
<path d="M8785 8532 c-92 -24 -132 -42 -202 -90 -76 -52 -131 -107 -179 -179
l-39 -58 -5 140 -5 140 -340 0 -340 0 -1 -163 c-1 -158 -1 -162 20 -167 25 -5
129 -14 167 -15 35 0 69 -32 78 -72 4 -18 7 -305 7 -638 -1 -570 -2 -607 -20
-632 -21 -32 -61 -45 -155 -52 -35 -3 -66 -8 -70 -11 -11 -12 -8 -304 3 -308
10 -3 1032 -1 1064 2 9 1 12 40 12 161 0 145 -2 160 -17 161 -10 1 -54 3 -98
5 -44 2 -113 5 -152 7 -40 2 -76 6 -79 10 -4 3 -6 232 -6 509 0 493 5 581 34
615 6 7 8 13 4 13 -12 0 47 86 85 123 98 95 298 129 365 62 23 -23 24 -31 24
-151 l0 -127 83 7 c85 7 237 18 272 20 19 1 20 9 23 308 l2 307 -47 21 c-139
62 -358 85 -488 52z"/>
<path d="M535 6076 c-16 -7 -43 -26 -59 -42 -59 -59 -58 -52 -59 -607 l0 -507
25 -47 c16 -32 39 -57 69 -76 l45 -27 4842 0 c4086 0 4847 2 4874 13 44 18 94
77 107 124 7 24 11 216 11 524 0 412 -2 493 -15 530 -19 54 -49 86 -100 110
-39 18 -195 19 -4875 18 -3987 0 -4840 -2 -4865 -13z"/>
<path d="M1955 4424 c-261 -46 -448 -164 -543 -341 -45 -86 -63 -163 -67 -288
-10 -344 134 -507 564 -634 57 -17 114 -33 125 -36 146 -30 236 -77 293 -151
25 -33 28 -47 30 -113 3 -145 -65 -218 -230 -246 -41 -7 -175 -7 -217 -1 -91
14 -139 31 -176 63 -40 35 -47 62 -48 187 -1 71 -6 120 -11 119 -6 0 -53 -4
-105 -8 -52 -4 -106 -8 -120 -9 -14 -2 -49 -4 -77 -4 l-53 -2 0 -289 0 -289
63 -25 c164 -66 369 -97 637 -97 228 0 370 30 505 105 94 53 161 112 214 188
32 48 85 157 76 157 -3 0 -1 9 4 19 21 39 30 192 18 296 -13 101 -65 203 -148
287 -55 56 -86 77 -180 123 -97 46 -234 95 -316 111 -46 9 -201 67 -256 97
-55 29 -121 92 -126 119 -1 7 -4 47 -7 88 -4 66 -2 80 18 115 27 46 101 100
161 116 94 26 280 12 364 -27 62 -28 78 -65 82 -192 l3 -113 77 6 c138 10 216
17 241 20 14 2 30 3 35 4 9 1 13 487 4 495 -17 13 -192 80 -264 101 -200 58
-416 76 -570 49z"/>
<path d="M3861 4419 c-169 -37 -319 -112 -431 -215 -19 -18 -44 -41 -55 -51
-37 -33 -102 -118 -130 -168 -15 -27 -31 -54 -35 -60 -31 -41 -89 -271 -105
-413 -6 -62 -7 -291 0 -342 2 -19 7 -57 11 -85 11 -92 14 -107 25 -149 23 -90
98 -276 119 -296 3 -3 18 -24 34 -47 35 -52 156 -173 174 -173 6 0 12 -4 12
-9 0 -13 200 -111 226 -111 11 0 24 -3 28 -7 3 -4 12 -8 19 -9 230 -42 429
-38 607 11 30 8 64 17 75 20 35 8 218 104 268 141 34 24 46 39 39 47 -5 7 -28
48 -52 92 -47 88 -85 158 -107 193 -14 22 -14 22 -35 3 -19 -18 -149 -91 -173
-98 -5 -1 -44 -14 -85 -28 -90 -31 -229 -40 -312 -21 -197 46 -321 208 -374
491 -10 51 -10 383 -1 450 33 242 168 430 330 460 12 3 33 7 47 10 57 12 159
8 223 -10 101 -27 111 -46 114 -200 1 -66 2 -125 2 -132 1 -6 11 -10 24 -8 12
2 60 6 107 9 185 13 235 18 238 21 3 3 5 399 3 508 -1 24 -9 32 -68 59 -38 17
-70 32 -73 33 -3 0 -41 13 -85 28 -217 72 -437 93 -604 56z"/>
<path d="M5935 4430 c-22 -4 -59 -10 -82 -14 -58 -7 -154 -33 -216 -57 -329
-126 -543 -432 -592 -846 -3 -26 -8 -58 -11 -71 -6 -30 -6 -327 1 -377 30
-224 78 -365 172 -513 96 -150 257 -247 467 -283 82 -14 290 -6 356 13 106 31
228 108 290 182 14 17 33 38 43 48 9 10 17 23 17 28 0 6 5 10 10 10 6 0 10
-47 10 -120 l0 -120 323 2 322 3 0 158 c0 88 -2 160 -5 162 -3 2 -41 6 -85 10
-93 7 -126 26 -136 75 -4 17 -7 368 -7 779 -1 410 -1 757 -1 772 -1 22 -9 28
-73 49 -40 13 -77 25 -83 26 -5 1 -44 12 -85 23 -142 40 -299 63 -450 66 -80
1 -163 -1 -185 -5z"/>
<path d="M8466 4425 c-212 -43 -401 -155 -499 -295 -16 -24 -17 -20 -17 108
l0 132 -52 1 c-293 3 -622 -2 -627 -10 -5 -7 -6 -282 -2 -312 1 -3 44 -9 96
-13 104 -7 134 -17 155 -49 21 -32 22 -1255 2 -1298 -17 -34 -57 -49 -156 -58
l-71 -6 -3 -157 -3 -158 481 0 480 0 0 165 0 165 -52 2 c-29 0 -57 2 -63 3 -5
2 -33 3 -62 4 l-52 1 0 524 c0 577 1 594 60 690 92 149 252 215 449 183 86
-14 153 -65 189 -147 39 -89 44 -163 45 -686 1 -464 -1 -502 -17 -528 -23 -34
-53 -45 -141 -52 -39 -4 -76 -10 -82 -15 -7 -5 -10 -62 -10 -156 l1 -148 482
-3 481 -2 0 165 -1 165 -31 0 c-40 1 -190 12 -193 14 -1 1 -3 268 -4 595 0
326 -5 607 -9 624 -5 18 -12 52 -15 77 -4 24 -9 48 -11 52 -3 4 -7 18 -9 30
-11 56 -83 175 -141 234 -136 136 -384 202 -598 159z"/>
<path d="M560 1878 c-53 -15 -100 -56 -123 -107 -19 -44 -20 -64 -20 -612 1
-554 1 -567 22 -607 25 -49 72 -87 126 -100 25 -6 254 -9 595 -8 518 1 557 3
590 20 143 75 144 279 1 348 -46 22 -50 22 -493 23 l-448 0 0 446 0 445 -26
52 c-41 83 -136 125 -224 100z"/>
<path d="M10135 1877 c-48 -15 -93 -55 -116 -100 -21 -40 -22 -54 -23 -492
l-1 -450 -445 -1 c-245 0 -456 -4 -470 -8 -74 -24 -133 -106 -132 -186 0 -57
12 -88 52 -133 56 -64 53 -64 680 -63 612 1 588 -1 647 55 60 57 58 33 58 666
l0 580 -27 45 c-43 74 -144 114 -223 87z"/>
</g>
</svg>
